#!OML:ASF E:\VariousWalksJay\Project 1\Capture day 1\Session 1\Actor2.ASF
:FULLY-SPECIFIED
:DEGREES
1243
root -17.584 16.8599 45.848 8.48488 -49.5475 -6.28268
lowerback -7.10917 -4.15267 4.7782
upperback 2.01518 -6.00076 0.0551342
thorax 5.60341 -2.79695 -3.29536
lowerneck -8.56953 -6.47678 -6.08915
upperneck 9.16991 -9.39711 11.8242
head 5.01874 -4.20697 3.96849
rclavicle 5.81694e-014 -8.34896e-015
rhumerus -48.8035 17.9139 -87.4896
rradius 48.7478
rwrist 9.6334
rhand -39.0454 14.0654
rfingers 7.12502
rthumb -12.0474 -15.5678
lclavicle 5.81694e-014 -8.34896e-015
lhumerus -18.0558 -40.4278 97.7337
lradius 62.4567
lwrist 38.2935
lhand -29.8482 3.38948
lfingers 7.12502
lthumb -3.17085 33.3457
rfemur -18.6432 0.438384 26.2691
rtibia 34.5901
rfoot -18.824 4.41112
rtoes 6.84687
lfemur -6.09587 3.71353 -19.1953
ltibia 24.9217
lfoot -21.8641 3.46791
ltoes -13.6072
1244
root -17.5853 16.8599 45.8452 8.49057 -49.5272 -6.28626
lowerback -7.07156 -4.14393 4.78851
upperback 1.99778 -5.98741 0.0574554
thorax 5.56404 -2.79176 -3.29294
lowerneck -8.55137 -6.49636 -6.10229
upperneck 9.17918 -9.42193 11.8111
head 5.0207 -4.22057 3.96475
rclavicle 5.42434e-014 -7.15625e-015
rhumerus -48.8409 17.9176 -87.4896
rradius 48.7566
rwrist 9.61497
rhand -39.045 14.0365
rfingers 7.12502
rthumb -12.0471 -15.5967
lclavicle 5.42434e-014 -7.15625e-015
lhumerus -18.0937 -40.47 97.7728
lradius 62.4768
lwrist 38.2951
lhand -29.8504 3.39427
lfingers 7.12502
lthumb -3.17295 33.3504
rfemur -18.6452 0.428771 26.2861
rtibia 34.5811
rfoot -18.8224 4.39704
rtoes 6.84313
lfemur -6.11162 3.7019 -19.1831
ltibia 24.9439
lfoot -21.8756 3.49277
ltoes -13.6131
1245
root -17.5865 16.8599 45.8426 8.4961 -49.5039 -6.29044
lowerback -7.03613 -4.13489 4.80132
upperback 1.98204 -5.97406 0.0596736
thorax 5.52741 -2.78636 -3.29232
lowerneck -8.53546 -6.51623 -6.11916
upperneck 9.18867 -9.44673 11.7993
head 5.02335 -4.23412 3.96196
rclavicle -2.10215e-014 2.38542e-015
rhumerus -48.8753 17.9136 -87.4853
rradius 48.7607
rwrist 9.60257
rhand -39.0485 14.0191
rfingers 7.12502
rthumb -12.0504 -15.614
lclavicle -2.10215e-014 2.38542e-015
lhumerus -18.1288 -40.5161 97.8121
lradius 62.4954
lwrist 38.2982
lhand -29.8521 3.39928
lfingers 7.12502
lthumb -3.17459 33.3554
rfemur -18.6457 0.415965 26.3037
rtibia 34.5716
rfoot -18.8218 4.38428
rtoes 6.85094
lfemur -6.12858 3.68998 -19.1701
ltibia 24.9665
lfoot -21.8866 3.51786
ltoes -13.6302
1246
root -17.5878 16.8599 45.8401 8.50098 -49.4783 -6.29435
lowerback -7.00472 -4.12589 4.81557
upperback 1.96908 -5.96121 0.0616361
thorax 5.49581 -2.78093 -3.29332
lowerneck -8.52077 -6.53609 -6.13759
upperneck 9.19478 -9.47116 11.7895
head 5.02533 -4.24747 3.96007
rclavicle -1.18774e-014 -7.55382e-015
rhumerus -48.903 17.9008 -87.4757
rradius 48.7576
rwrist 9.59889
rhand -39.0567 14.0201
rfingers 7.12502
rthumb -12.0584 -15.6124
lclavicle -1.18774e-014 -7.55382e-015
lhumerus -18.1585 -40.5652 97.8486
lradius 62.5123
lwrist 38.3034
lhand -29.8548 3.40353
lfingers 7.12502
lthumb -3.17727 33.3596
rfemur -18.6458 0.399144 26.3211
rtibia 34.5628
rfoot -18.8227 4.37424
rtoes 6.86851
lfemur -6.14631 3.67625 -19.1571
ltibia 24.9877
lfoot -21.8959 3.54213
ltoes -13.6576
1247
root -17.589 16.8597 45.8377 8.50462 -49.4517 -6.29721
lowerback -6.97818 -4.1171 4.83021
upperback 1.95955 -5.94905 0.0632139
thorax 5.47047 -2.77553 -3.29565
lowerneck -8.50648 -6.5551 -6.15796
upperneck 9.19591 -9.49409 11.7833
head 5.026 -4.26006 3.95978
rclavicle 5.725e-014 1.11319e-014
rhumerus -48.922 17.8794 -87.4608
rradius 48.7464
rwrist 9.60456
rhand -39.07 14.0422
rfingers 7.12502
rthumb -12.0712 -15.5896
lclavicle 5.725e-014 1.11319e-014
lhumerus -18.1815 -40.616 97.8808
lradius 62.5274
lwrist 38.3111
lhand -29.8584 3.40644
lfingers 7.12502
lthumb -3.1807 33.3625
rfemur -18.646 0.378338 26.3373
rtibia 34.5559
rfoot -18.8257 4.36811
rtoes 6.89537
lfemur -6.16414 3.66005 -19.1448
ltibia 25.0058
lfoot -21.9026 3.56619
ltoes -13.697
1248
root -17.5902 16.8595 45.8355 8.50638 -49.4264 -6.29758
lowerback -6.95649 -4.10912 4.84294
upperback 1.95333 -5.93816 0.0644032
thorax 5.45142 -2.77055 -3.29808
lowerneck -8.49232 -6.57194 -6.17911
upperneck 9.19179 -9.51389 11.7809
head 5.02502 -4.2711 3.96107
rclavicle -2.84511e-014 -1.55052e-014
rhumerus -48.9327 17.8549 -87.443
rradius 48.7289
rwrist 9.61742
rhand -39.0873 14.0813
rfingers 7.12502
rthumb -12.0878 -15.5495
lclavicle -2.84511e-014 -1.55052e-014
lhumerus -18.1972 -40.6654 97.9067
lradius 62.5408
lwrist 38.3208
lhand -29.8629 3.40844
lfingers 7.12502
lthumb -3.18509 33.3644
rfemur -18.6477 0.3548 26.3511
rtibia 34.5523
rfoot -18.8306 4.36716
rtoes 6.9324
lfemur -6.18202 3.63979 -19.1348
ltibia 25.0193
lfoot -21.9059 3.59036
ltoes -13.7472
1249
root -17.5912 16.8592 45.8334 8.50624 -49.4043 -6.29515
lowerback -6.93896 -4.10283 4.8524
upperback 1.95012 -5.92955 0.0651427
thorax 5.43797 -2.76654 -3.29994
lowerneck -8.47752 -6.58478 -6.19963
upperneck 9.18221 -9.52827 11.7822
head 5.02194 -4.27943 3.96399
rclavicle -6.10517e-014 1.15295e-014
rhumerus -48.9368 17.8354 -87.4266
rradius 48.7089
rwrist 9.6329
rhand -39.107 14.1287
rfingers 7.12502
rthumb -12.1068 -15.501
lclavicle -6.10517e-014 1.15295e-014
lhumerus -18.2059 -40.7096 97.9244
lradius 62.5526
lwrist 38.3318
lhand -29.8674 3.4102
lfingers 7.12502
lthumb -3.18942 33.3661
rfemur -18.6519 0.329173 26.3618
rtibia 34.5526
rfoot -18.837 4.37209
rtoes 6.9743
lfemur -6.19857 3.61738 -19.1278
ltibia 25.0276
lfoot -21.9065 3.61439
ltoes -13.7989
1250
root -17.5922 16.8588 45.8313 8.50355 -49.387 -6.28885
lowerback -6.92481 -4.09945 4.85614
upperback 1.94982 -5.92458 0.0654911
thorax 5.42973 -2.76429 -3.29988
lowerneck -8.46244 -6.59184 -6.21714
upperneck 9.16734 -9.53502 11.7865
head 5.01649 -4.28394 3.96809
rclavicle -1.02101e-013 1.07344e-014
rhumerus -48.9354 17.8289 -87.4161
rradius 48.6891
rwrist 9.647
rhand -39.1273 14.1741
rfingers 7.12502
rthumb -12.1264 -15.4545
lclavicle -1.02101e-013 1.07344e-014
lhumerus -18.2072 -40.7446 97.931
lradius 62.5632
lwrist 38.344
lhand -29.8716 3.41225
lfingers 7.12502
lthumb -3.19342 33.3681
rfemur -18.659 0.303726 26.3684
rtibia 34.5572
rfoot -18.8442 4.38207
rtoes 7.01954
lfemur -6.21323 3.5938 -19.1249
ltibia 25.031
lfoot -21.9049 3.63923
ltoes -13.8484
1251
root -17.5931 16.8583 45.8292 8.49824 -49.3753 -6.27856
lowerback -6.91315 -4.09997 4.8529
upperback 1.95222 -5.92441 0.0653748
thorax 5.42595 -2.76442 -3.29729
lowerneck -8.44769 -6.59189 -6.22885
upperneck 9.14818 -9.53274 11.7925
head 5.00877 -4.28388 3.9726
rclavicle 8.60986e-014 1.11319e-014
rhumerus -48.9295 17.8422 -87.4156
rradius 48.6718
rwrist 9.65598
rhand -39.1464 14.2071
rfingers 7.12502
rthumb -12.1448 -15.4203
lclavicle 8.60986e-014 1.11319e-014
lhumerus -18.2013 -40.7674 97.925
lradius 62.5727
lwrist 38.357
lhand -29.8756 3.41519
lfingers 7.12502
lthumb -3.19732 33.371
rfemur -18.6692 0.279774 26.3709
rtibia 34.5657
rfoot -18.8515 4.39615
rtoes 7.06467
lfemur -6.22568 3.57086 -19.1264
ltibia 25.0303
lfoot -21.9023 3.66421
ltoes -13.8898
1252
root -17.5938 16.8579 45.8271 8.48993 -49.3686 -6.26398
lowerback -6.90363 -4.10508 4.84202
upperback 1.95739 -5.92984 0.0646786
thorax 5.4265 -2.76738 -3.292
lowerneck -8.43397 -6.58459 -6.2334
upperneck 9.12559 -9.52106 11.7991
head 4.99898 -4.27903 3.97697
rclavicle 2.53202e-014 -1.27222e-014
rhumerus -48.9184 17.8774 -87.4264
rradius 48.6566
rwrist 9.65889
rhand -39.1627 14.2215
rfingers 7.12502
rthumb -12.1605 -15.4051
lclavicle 2.53202e-014 -1.27222e-014
lhumerus -18.1882 -40.777 97.9051
lradius 62.5812
lwrist 38.3701
lhand -29.8787 3.41924
lfingers 7.12502
lthumb -3.20031 33.375
rfemur -18.682 0.259003 26.3692
rtibia 34.5772
rfoot -18.8583 4.4116
rtoes 7.10623
lfemur -6.23605 3.5498 -19.1322
ltibia 25.0271
lfoot -21.8992 3.68932
ltoes -13.9214
1253
root -17.5945 16.8574 45.8249 8.47871 -49.3656 -6.24583
lowerback -6.89577 -4.11449 4.8244
upperback 1.96529 -5.94057 0.063319
thorax 5.431 -2.77299 -3.28448
lowerneck -8.42194 -6.57091 -6.23034
upperneck 9.10082 -9.50137 11.8054
head 4.9877 -4.27004 3.98071
rclavicle -1.25731e-013 3.57812e-015
rhumerus -48.9014 17.9316 -87.4478
rradius 48.6419
rwrist 9.65605
rhand -39.1749 14.2164
rfingers 7.12502
rthumb -12.1723 -15.4095
lclavicle -1.25731e-013 3.57812e-015
lhumerus -18.1685 -40.7757 97.8724
lradius 62.5886
lwrist 38.3841
lhand -29.8815 3.42429
lfingers 7.12502
lthumb -3.20301 33.38
rfemur -18.6961 0.241212 26.3643
rtibia 34.5907
rfoot -18.8641 4.42655
rtoes 7.13993
lfemur -6.24428 3.53159 -19.1415
ltibia 25.0229
lfoot -21.8967 3.71371
ltoes -13.9444
1254
root -17.5951 16.857 45.8227 8.46481 -49.3639 -6.22507
lowerback -6.88884 -4.12771 4.80133
upperback 1.97544 -5.95601 0.0616369
thorax 5.4385 -2.78097 -3.27497
lowerneck -8.41215 -6.55262 -6.21995
upperneck 9.07553 -9.4759 11.8092
head 4.97563 -4.25806 3.98297
rclavicle 1.03964e-013 -3.18055e-015
rhumerus -48.8773 17.9981 -87.4762
rradius 48.6236
rwrist 9.65119
rhand -39.183 14.1941
rfingers 7.12502
rthumb -12.1802 -15.4313
lclavicle 1.03964e-013 -3.18055e-015
lhumerus -18.1441 -40.7658 97.8302
lradius 62.5946
lwrist 38.3983
lhand -29.8846 3.43028
lfingers 7.12502
lthumb -3.20605 33.3859
rfemur -18.7102 0.227513 26.3572
rtibia 34.6049
rfoot -18.869 4.43809
rtoes 7.16809
lfemur -6.2508 3.51595 -19.1528
ltibia 25.0192
lfoot -21.8951 3.73652
ltoes -13.9601
1255
root -17.5956 16.8566 45.8205 8.44887 -49.3613 -6.20318
lowerback -6.88277 -4.14313 4.77594
upperback 1.98736 -5.97426 0.0596057
thorax 5.44831 -2.7903 -3.26499
lowerneck -8.4047 -6.53217 -6.20456
upperneck 9.05167 -9.4478 11.8101
head 4.96377 -4.24468 3.98361
rclavicle 2.55438e-014 -2.18663e-014
rhumerus -48.8458 18.0673 -87.5068
rradius 48.5983
rwrist 9.64822
rhand -39.1878 14.162
rfingers 7.12502
rthumb -12.1847 -15.4631
lclavicle 2.55438e-014 -2.18663e-014
lhumerus -18.117 -40.7535 97.7833
lradius 62.5989
lwrist 38.4135
lhand -29.8882 3.43675
lfingers 7.12502
lthumb -3.20944 33.3923
rfemur -18.7229 0.216049 26.3493
rtibia 34.6186
rfoot -18.873 4.44498
rtoes 7.18791
lfemur -6.2561 3.50201 -19.1647
ltibia 25.0171
lfoot -21.8946 3.75772
ltoes -13.975
1256
root -17.5962 16.8562 45.8182 8.43152 -49.356 -6.18135
lowerback -6.87673 -4.15908 4.75047
upperback 2.00017 -5.99325 0.0574938
thorax 5.45903 -2.79997 -3.25517
lowerneck -8.39963 -6.51253 -6.18573
upperneck 9.03072 -9.42083 11.8063
head 4.95291 -4.23181 3.98206
rclavicle -1.99033e-014 -1.59028e-015
rhumerus -48.8083 18.1308 -87.5351
rradius 48.5642
rwrist 9.64986
rhand -39.1898 14.1268
rfingers 7.12502
rthumb -12.1867 -15.4982
lclavicle -1.99033e-014 -1.59028e-015
lhumerus -18.0899 -40.7438 97.7365
lradius 62.6014
lwrist 38.4297
lhand -29.8935 3.44341
lfingers 7.12502
lthumb -3.21462 33.3989
rfemur -18.7332 0.206532 26.342
rtibia 34.6309
rfoot -18.8764 4.44654
rtoes 7.20276
lfemur -6.26059 3.48859 -19.1758
ltibia 25.0174
lfoot -21.8954 3.77586
ltoes -13.9915
1257
root -17.5967 16.8559 45.816 8.41407 -49.3466 -6.16154
lowerback -6.86973 -4.17357 4.72827
upperback 2.01253 -6.01055 0.0556431
thorax 5.4686 -2.80874 -3.24661
lowerneck -8.3955 -6.49574 -6.16733
upperneck 9.01412 -9.39754 11.7981
head 4.94369 -4.22082 3.97884
rclavicle 6.06045e-014 -2.06736e-014
rhumerus -48.7683 18.1809 -87.5569
rradius 48.5219
rwrist 9.65795
rhand -39.1909 14.0954
rfingers 7.12502
rthumb -12.1877 -15.5295
lclavicle 6.06045e-014 -2.06736e-014
lhumerus -18.0661 -40.7419 97.6962
lradius 62.6017
lwrist 38.4467
lhand -29.9006 3.4495
lfingers 7.12502
lthumb -3.22144 33.4049
rfemur -18.7404 0.197584 26.3367
rtibia 34.6411
rfoot -18.8795 4.44242
rtoes 7.21146
lfemur -6.26463 3.47479 -19.1843
ltibia 25.0204
lfoot -21.8975 3.79107
ltoes -14.0116
